# xmcd
#
# Track frame offsets: 
#        150
#        10109
#        21365
#        40379
#        53562
#        70454
#        86993
#        97401
#        116299
#        133531
#        155244
#        169355
#        181232
#        188006
#
# Disc length: 2667 seconds
#
# Revision: 0
# Processed by: cddbd v1.5.1PL2 Copyright (c) Steve Scherf et al.
# Submitted via: ExactAudioCopy v0.95b4
#
DISCID=c40a690e
DTITLE=Hepp - Haussner - thanks and keep the change
DYEAR=2001
DGENRE=Boogie
TTITLE0=I Ain't - Boogie
TTITLE1=(My Baby Left) For A Pack Of Cigarettes
TTITLE2=Red Pontiac
TTITLE3=Dust My Broom
TTITLE4=L.F. Blues
TTITLE5=Thanks - And Keep The Change
TTITLE6=I'm Going South
TTITLE7=Overload
TTITLE8=Huh - Hey!
TTITLE9=I Won't Mercy
TTITLE10=Ain't No Blues Left For Me
TTITLE11=More Haste, Less Speed
TTITLE12=Mojave Desert Sunset
TTITLE13=Boogie Woogie
EXTD=
EXTT0=
EXTT1=
EXTT2=
EXTT3=
EXTT4=
EXTT5=
EXTT6=
EXTT7=
EXTT8=
EXTT9=
EXTT10=
EXTT11=
EXTT12=
EXTT13=
PLAYORDER=
